<svg width="18" height="22" viewBox="0 0 18 22" fill="none" xmlns="http://www.w3.org/2000/svg">
<path d="M13.0645 3.38916H15.0645C15.5949 3.38916 16.1036 3.59987 16.4787 3.97495C16.8537 4.35002 17.0645 4.85873 17.0645 5.38916V19.3892C17.0645 19.9196 16.8537 20.4283 16.4787 20.8034C16.1036 21.1784 15.5949 21.3892 15.0645 21.3892H3.06445C2.53402 21.3892 2.02531 21.1784 1.65024 20.8034C1.27517 20.4283 1.06445 19.9196 1.06445 19.3892V5.38916C1.06445 4.85873 1.27517 4.35002 1.65024 3.97495C2.02531 3.59987 2.53402 3.38916 3.06445 3.38916H5.06445M6.06445 13.3892H12.0645M9.06445 16.3892V10.3892M6.06445 1.38916H12.0645C12.6167 1.38916 13.0645 1.83688 13.0645 2.38916V4.38916C13.0645 4.94144 12.6167 5.38916 12.0645 5.38916H6.06445C5.51217 5.38916 5.06445 4.94144 5.06445 4.38916V2.38916C5.06445 1.83688 5.51217 1.38916 6.06445 1.38916Z" stroke="black" stroke-width="1.2" stroke-linecap="round" stroke-linejoin="round"/>
</svg>
