<svg width="26" height="26" viewBox="0 0 26 26" fill="none" xmlns="http://www.w3.org/2000/svg">
<path d="M19.5013 21.6665C19.5013 19.9426 18.8165 18.2893 17.5975 17.0703C16.3785 15.8513 14.7252 15.1665 13.0013 15.1665M13.0013 15.1665C11.2774 15.1665 9.62409 15.8513 8.40511 17.0703C7.18612 18.2893 6.5013 19.9426 6.5013 21.6665M13.0013 15.1665C15.3945 15.1665 17.3346 13.2264 17.3346 10.8332C17.3346 8.43994 15.3945 6.49984 13.0013 6.49984C10.6081 6.49984 8.66797 8.43994 8.66797 10.8332C8.66797 13.2264 10.6081 15.1665 13.0013 15.1665ZM23.8346 12.9998C23.8346 18.9829 18.9844 23.8332 13.0013 23.8332C7.01822 23.8332 2.16797 18.9829 2.16797 12.9998C2.16797 7.01675 7.01822 2.1665 13.0013 2.1665C18.9844 2.1665 23.8346 7.01675 23.8346 12.9998Z" stroke="white" stroke-width="2" stroke-linecap="round" stroke-linejoin="round"/>
</svg>
