<svg width="61" height="60" viewBox="0 0 61 60" fill="none" xmlns="http://www.w3.org/2000/svg">
<path d="M16.3075 2.30836C23.9545 2.30836 30.1537 8.5075 30.1537 16.1545V30.0007H16.3075C8.66048 30.0007 2.46136 23.8015 2.46136 16.1545C2.46136 8.5075 8.66048 2.30836 16.3075 2.30836Z" fill="#030303"/>
<path d="M43.9996 57.6925C36.3526 57.6925 30.1535 51.4934 30.1535 43.8464V30.0002H43.9996C51.6467 30.0002 57.8458 36.1993 57.8458 43.8464C57.8458 51.4934 51.6467 57.6925 43.9996 57.6925Z" fill="#030303"/>
<path d="M16.3075 57.6925C23.9545 57.6925 30.1537 51.4934 30.1537 43.8464V30.0002H16.3075C8.66049 30.0002 2.46136 36.1993 2.46136 43.8464C2.46136 51.4934 8.66049 57.6925 16.3075 57.6925Z" fill="#00008B"/>
<path d="M44.0002 2.31009C36.3532 2.31009 30.1541 8.50923 30.1541 16.1562V30.0024H44.0002C51.6472 30.0024 57.8464 23.8033 57.8464 16.1562C57.8464 8.50923 51.6472 2.31009 44.0002 2.31009Z" fill="#565656"/>
</svg>
