<svg width="25" height="24" viewBox="0 0 25 24" fill="none" xmlns="http://www.w3.org/2000/svg">
<path d="M1.78235 1.22083H3.94902L6.83068 14.6758C6.93639 15.1686 7.21058 15.6091 7.60604 15.9215C8.0015 16.2339 8.4935 16.3987 8.99735 16.3875H19.5923C20.0855 16.3867 20.5635 16.2177 20.9476 15.9085C21.3317 15.5992 21.5988 15.1682 21.7049 14.6867L23.4924 6.6375H5.10818M9.31152 21.75C9.31152 22.3483 8.82649 22.8333 8.22818 22.8333C7.62987 22.8333 7.14485 22.3483 7.14485 21.75C7.14485 21.1517 7.62987 20.6667 8.22818 20.6667C8.82649 20.6667 9.31152 21.1517 9.31152 21.75ZM21.2282 21.75C21.2282 22.3483 20.7432 22.8333 20.1449 22.8333C19.5465 22.8333 19.0615 22.3483 19.0615 21.75C19.0615 21.1517 19.5465 20.6667 20.1449 20.6667C20.7432 20.6667 21.2282 21.1517 21.2282 21.75Z" stroke="#00008B" stroke-width="2" stroke-linecap="round" stroke-linejoin="round"/>
</svg>
